<svg width="43" height="12" viewBox="0 0 43 10" fill="none" xmlns="http://www.w3.org/2000/svg">
<path d="M6.67383 5.80664C6.67383 6.27539 6.58984 6.71289 6.42188 7.11914C6.25391 7.52148 6.02539 7.87109 5.73633 8.16797C5.44727 8.46094 5.10742 8.69336 4.7168 8.86523C4.33008 9.0332 3.91406 9.11719 3.46875 9.11719C3.02734 9.11719 2.61133 9.0332 2.2207 8.86523C1.83398 8.69336 1.49414 8.46094 1.20117 8.16797C0.912109 7.87109 0.683594 7.52148 0.515625 7.11914C0.347656 6.71289 0.263672 6.27539 0.263672 5.80664C0.263672 5.33008 0.347656 4.88867 0.515625 4.48242C0.683594 4.07617 0.912109 3.72656 1.20117 3.43359C1.49414 3.13672 1.83398 2.9043 2.2207 2.73633C2.61133 2.56836 3.02734 2.48438 3.46875 2.48438C3.91406 2.48438 4.33008 2.56445 4.7168 2.72461C5.10742 2.88086 5.44727 3.10547 5.73633 3.39844C6.02539 3.6875 6.25391 4.03711 6.42188 4.44727C6.58984 4.85352 6.67383 5.30664 6.67383 5.80664ZM5.0625 5.80664C5.0625 5.54883 5.01953 5.31641 4.93359 5.10938C4.85156 4.89844 4.73828 4.71875 4.59375 4.57031C4.44922 4.41797 4.2793 4.30273 4.08398 4.22461C3.89258 4.14258 3.6875 4.10156 3.46875 4.10156C3.25 4.10156 3.04297 4.14258 2.84766 4.22461C2.65625 4.30273 2.48828 4.41797 2.34375 4.57031C2.20312 4.71875 2.0918 4.89844 2.00977 5.10938C1.92773 5.31641 1.88672 5.54883 1.88672 5.80664C1.88672 6.04883 1.92773 6.27344 2.00977 6.48047C2.0918 6.6875 2.20312 6.86719 2.34375 7.01953C2.48828 7.17188 2.65625 7.29297 2.84766 7.38281C3.04297 7.46875 3.25 7.51172 3.46875 7.51172C3.6875 7.51172 3.89258 7.4707 4.08398 7.38867C4.2793 7.30664 4.44922 7.19141 4.59375 7.04297C4.73828 6.89453 4.85156 6.71484 4.93359 6.50391C5.01953 6.29297 5.0625 6.06055 5.0625 5.80664ZM9.16992 9H7.55859V0.228516H9.16992V9ZM16.459 9H16.0723L15.4512 8.13867C15.2988 8.27539 15.1367 8.4043 14.9648 8.52539C14.7969 8.64258 14.6191 8.74609 14.4316 8.83594C14.2441 8.92188 14.0508 8.99023 13.8516 9.04102C13.6562 9.0918 13.457 9.11719 13.2539 9.11719C12.8125 9.11719 12.3965 9.03516 12.0059 8.87109C11.6191 8.70312 11.2793 8.47266 10.9863 8.17969C10.6973 7.88281 10.4688 7.5332 10.3008 7.13086C10.1328 6.72461 10.0488 6.2832 10.0488 5.80664C10.0488 5.33398 10.1328 4.89453 10.3008 4.48828C10.4688 4.08203 10.6973 3.73047 10.9863 3.43359C11.2793 3.13672 11.6191 2.9043 12.0059 2.73633C12.3965 2.56836 12.8125 2.48438 13.2539 2.48438C13.3945 2.48438 13.5391 2.49609 13.6875 2.51953C13.8398 2.54297 13.9863 2.58203 14.127 2.63672C14.2715 2.6875 14.4062 2.75586 14.5312 2.8418C14.6562 2.92773 14.7617 3.0332 14.8477 3.1582V0.228516H16.459V9ZM14.8477 5.80664C14.8477 5.58789 14.8047 5.37695 14.7188 5.17383C14.6367 4.9668 14.5234 4.78516 14.3789 4.62891C14.2344 4.46875 14.0645 4.3418 13.8691 4.24805C13.6777 4.15039 13.4727 4.10156 13.2539 4.10156C13.0352 4.10156 12.8281 4.14062 12.6328 4.21875C12.4414 4.29688 12.2734 4.41016 12.1289 4.55859C11.9883 4.70312 11.877 4.88086 11.7949 5.0918C11.7129 5.30273 11.6719 5.54102 11.6719 5.80664C11.6719 6.03711 11.7129 6.25586 11.7949 6.46289C11.877 6.66992 11.9883 6.85156 12.1289 7.00781C12.2734 7.16406 12.4414 7.28711 12.6328 7.37695C12.8281 7.4668 13.0352 7.51172 13.2539 7.51172C13.4727 7.51172 13.6777 7.46484 13.8691 7.37109C14.0645 7.27344 14.2344 7.14648 14.3789 6.99023C14.5234 6.83008 14.6367 6.64844 14.7188 6.44531C14.8047 6.23828 14.8477 6.02539 14.8477 5.80664ZM23.9648 5.80664C23.9648 6.29883 23.8809 6.74805 23.7129 7.1543C23.5449 7.56055 23.3164 7.91016 23.0273 8.20312C22.7383 8.49219 22.3984 8.7168 22.0078 8.87695C21.6211 9.03711 21.2051 9.11719 20.7598 9.11719C20.3184 9.11719 19.9023 9.03516 19.5117 8.87109C19.125 8.70703 18.7852 8.47852 18.4922 8.18555C18.2031 7.89258 17.9746 7.54492 17.8066 7.14258C17.6387 6.73633 17.5547 6.29102 17.5547 5.80664V0.228516H19.1602V3.1582C19.2461 3.04883 19.3496 2.95117 19.4707 2.86523C19.5957 2.7793 19.7285 2.70898 19.8691 2.6543C20.0137 2.59961 20.1621 2.55859 20.3145 2.53125C20.4668 2.5 20.6152 2.48438 20.7598 2.48438C21.2051 2.48438 21.6211 2.56836 22.0078 2.73633C22.3984 2.90039 22.7383 3.13086 23.0273 3.42773C23.3164 3.72461 23.5449 4.07617 23.7129 4.48242C23.8809 4.88477 23.9648 5.32617 23.9648 5.80664ZM22.3535 5.80664C22.3535 5.56445 22.3105 5.33984 22.2246 5.13281C22.1426 4.92188 22.0293 4.74023 21.8848 4.58789C21.7402 4.43555 21.5703 4.31641 21.375 4.23047C21.1836 4.14453 20.9785 4.10156 20.7598 4.10156C20.541 4.10156 20.334 4.15039 20.1387 4.24805C19.9473 4.3418 19.7793 4.46875 19.6348 4.62891C19.4902 4.78516 19.377 4.9668 19.2949 5.17383C19.2129 5.37695 19.1719 5.58789 19.1719 5.80664C19.1719 6.04883 19.2129 6.27344 19.2949 6.48047C19.377 6.6875 19.4902 6.86719 19.6348 7.01953C19.7793 7.17188 19.9473 7.29297 20.1387 7.38281C20.334 7.46875 20.541 7.51172 20.7598 7.51172C20.9785 7.51172 21.1836 7.46875 21.375 7.38281C21.5703 7.29297 21.7402 7.17188 21.8848 7.01953C22.0293 6.86719 22.1426 6.6875 22.2246 6.48047C22.3105 6.27344 22.3535 6.04883 22.3535 5.80664ZM30.9199 5.80664C30.9199 6.27539 30.8359 6.71289 30.668 7.11914C30.5 7.52148 30.2715 7.87109 29.9824 8.16797C29.6934 8.46094 29.3535 8.69336 28.9629 8.86523C28.5762 9.0332 28.1602 9.11719 27.7148 9.11719C27.2734 9.11719 26.8574 9.0332 26.4668 8.86523C26.0801 8.69336 25.7402 8.46094 25.4473 8.16797C25.1582 7.87109 24.9297 7.52148 24.7617 7.11914C24.5938 6.71289 24.5098 6.27539 24.5098 5.80664C24.5098 5.33008 24.5938 4.88867 24.7617 4.48242C24.9297 4.07617 25.1582 3.72656 25.4473 3.43359C25.7402 3.13672 26.0801 2.9043 26.4668 2.73633C26.8574 2.56836 27.2734 2.48438 27.7148 2.48438C28.1602 2.48438 28.5762 2.56445 28.9629 2.72461C29.3535 2.88086 29.6934 3.10547 29.9824 3.39844C30.2715 3.6875 30.5 4.03711 30.668 4.44727C30.8359 4.85352 30.9199 5.30664 30.9199 5.80664ZM29.3086 5.80664C29.3086 5.54883 29.2656 5.31641 29.1797 5.10938C29.0977 4.89844 28.9844 4.71875 28.8398 4.57031C28.6953 4.41797 28.5254 4.30273 28.3301 4.22461C28.1387 4.14258 27.9336 4.10156 27.7148 4.10156C27.4961 4.10156 27.2891 4.14258 27.0938 4.22461C26.9023 4.30273 26.7344 4.41797 26.5898 4.57031C26.4492 4.71875 26.3379 4.89844 26.2559 5.10938C26.1738 5.31641 26.1328 5.54883 26.1328 5.80664C26.1328 6.04883 26.1738 6.27344 26.2559 6.48047C26.3379 6.6875 26.4492 6.86719 26.5898 7.01953C26.7344 7.17188 26.9023 7.29297 27.0938 7.38281C27.2891 7.46875 27.4961 7.51172 27.7148 7.51172C27.9336 7.51172 28.1387 7.4707 28.3301 7.38867C28.5254 7.30664 28.6953 7.19141 28.8398 7.04297C28.9844 6.89453 29.0977 6.71484 29.1797 6.50391C29.2656 6.29297 29.3086 6.06055 29.3086 5.80664ZM34.9043 9C34.5176 9 34.1543 8.92773 33.8145 8.7832C33.4746 8.63477 33.1758 8.43359 32.918 8.17969C32.6641 7.92188 32.4629 7.62305 32.3145 7.2832C32.1699 6.94336 32.0977 6.58008 32.0977 6.19336V4.33008H31.3184V2.73633H32.0977V0.228516H33.6914V2.73633H36.1172V4.33008H33.6914V6.19336C33.6914 6.36133 33.7227 6.51953 33.7852 6.66797C33.8477 6.8125 33.9336 6.93945 34.043 7.04883C34.1523 7.1582 34.2812 7.24609 34.4297 7.3125C34.5781 7.375 34.7363 7.40625 34.9043 7.40625H36.1172V9H34.9043ZM38.5312 11.3906V9.7793L39.4219 9.79102C39.5781 9.79102 39.7285 9.76562 39.873 9.71484C40.0176 9.66406 40.1504 9.59375 40.2715 9.50391C40.3965 9.41406 40.5059 9.30664 40.5996 9.18164C40.6934 9.06055 40.7695 8.92773 40.8281 8.7832C40.6523 8.85742 40.4727 8.93164 40.2891 9.00586C40.1094 9.08008 39.9277 9.11719 39.7441 9.11719C39.3574 9.11719 38.9941 9.04883 38.6543 8.91211C38.3145 8.77539 38.0156 8.58203 37.7578 8.33203C37.5039 8.07812 37.3027 7.77148 37.1543 7.41211C37.0098 7.04883 36.9375 6.64258 36.9375 6.19336V2.72461H38.5312V6.19336C38.5312 6.41602 38.5625 6.61133 38.625 6.7793C38.6914 6.94336 38.7793 7.08203 38.8887 7.19531C38.998 7.30469 39.125 7.38672 39.2695 7.44141C39.418 7.49609 39.5762 7.52344 39.7441 7.52344C39.9082 7.52344 40.0625 7.48633 40.207 7.41211C40.3555 7.33398 40.4844 7.23242 40.5938 7.10742C40.7031 6.98242 40.7891 6.8418 40.8516 6.68555C40.9141 6.52539 40.9453 6.36133 40.9453 6.19336V2.72461H42.5566V8.20898C42.5527 8.65039 42.4668 9.06445 42.2988 9.45117C42.1309 9.83789 41.9004 10.1758 41.6074 10.4648C41.3184 10.7539 40.9805 10.9824 40.5938 11.1504C40.207 11.3184 39.793 11.4023 39.3516 11.4023L38.5312 11.3906Z" fill="#FF7F50"/>
</svg>
